<?xml version="1.0" encoding="UTF-8" standalone="no"?><svg xmlns="http://www.w3.org/2000/svg" xmlns:xlink="http://www.w3.org/1999/xlink" contentScriptType="application/ecmascript" contentStyleType="text/css" height="458px" preserveAspectRatio="none" style="width:1025px;height:458px;" version="1.1" viewBox="0 0 1025 458" width="1025px" zoomAndPan="magnify"><defs><filter height="300%" id="f1u5byb8pyq82y" width="300%" x="-1" y="-1"><feGaussianBlur result="blurOut" stdDeviation="2.0"/><feColorMatrix in="blurOut" result="blurOut2" type="matrix" values="0 0 0 0 0 0 0 0 0 0 0 0 0 0 0 0 0 0 .4 0"/><feOffset dx="4.0" dy="4.0" in="blurOut2" result="blurOut3"/><feBlend in="SourceGraphic" in2="blurOut3" mode="normal"/></filter></defs><g><ellipse cx="508.964" cy="22.1928" fill="#FEFECE" filter="url(#f1u5byb8pyq82y)" rx="68.964" ry="16.1928" style="stroke:#A80036;stroke-width:1.5;"/><text fill="#000000" font-family="sans-serif" font-size="14" lengthAdjust="spacing" textLength="90" x="460.964" y="25.9404">Local System</text><rect fill="#FEFECE" filter="url(#f1u5byb8pyq82y)" height="36.2969" style="stroke:#000000;stroke-width:1.5;" width="95" x="461.5" y="100"/><text fill="#000000" font-family="sans-serif" font-size="14" lengthAdjust="spacing" textLength="75" x="471.5" y="122.9951">Boss Actor</text><ellipse cx="87.8658" cy="117.7732" fill="#FEFECE" filter="url(#f1u5byb8pyq82y)" rx="81.8658" ry="18.7732" style="stroke:#A80036;stroke-width:1.5;"/><text fill="#000000" font-family="sans-serif" font-size="14" lengthAdjust="spacing" textLength="123" x="25.3805" y="120.9463">Remote System A</text><ellipse cx="930.788" cy="117.8576" fill="#FEFECE" filter="url(#f1u5byb8pyq82y)" rx="82.288" ry="18.8576" style="stroke:#A80036;stroke-width:1.5;"/><text fill="#000000" font-family="sans-serif" font-size="14" lengthAdjust="spacing" textLength="124" x="867.9505" y="120.9838">Remote System B</text><ellipse cx="442" cy="223.5" fill="#FEFECE" filter="url(#f1u5byb8pyq82y)" rx="8" ry="8" style="stroke:#A80036;stroke-width:1.5;"/><path d="M442,231.5 L442,258.5 M429,239.5 L455,239.5 M442,258.5 L429,273.5 M442,258.5 L455,273.5 " fill="none" filter="url(#f1u5byb8pyq82y)" style="stroke:#A80036;stroke-width:1.5;"/><text fill="#000000" font-family="sans-serif" font-size="14" lengthAdjust="spacing" textLength="101" x="391.5" y="291.9951">local_workers..</text><ellipse cx="514" cy="381.5" fill="#FEFECE" filter="url(#f1u5byb8pyq82y)" rx="8" ry="8" style="stroke:#A80036;stroke-width:1.5;"/><path d="M514,389.5 L514,416.5 M501,397.5 L527,397.5 M514,416.5 L501,431.5 M514,416.5 L527,431.5 " fill="none" filter="url(#f1u5byb8pyq82y)" style="stroke:#A80036;stroke-width:1.5;"/><text fill="#000000" font-family="sans-serif" font-size="14" lengthAdjust="spacing" textLength="45" x="491.5" y="449.9951">printer</text><ellipse cx="288" cy="223.5" fill="#FEFECE" filter="url(#f1u5byb8pyq82y)" rx="8" ry="8" style="stroke:#A80036;stroke-width:1.5;"/><path d="M288,231.5 L288,258.5 M275,239.5 L301,239.5 M288,258.5 L275,273.5 M288,258.5 L301,273.5 " fill="none" filter="url(#f1u5byb8pyq82y)" style="stroke:#A80036;stroke-width:1.5;"/><text fill="#000000" font-family="sans-serif" font-size="14" lengthAdjust="spacing" textLength="136" x="220" y="291.9951">remote_A_workers..</text><ellipse cx="709" cy="223.5" fill="#FEFECE" filter="url(#f1u5byb8pyq82y)" rx="8" ry="8" style="stroke:#A80036;stroke-width:1.5;"/><path d="M709,231.5 L709,258.5 M696,239.5 L722,239.5 M709,258.5 L696,273.5 M709,258.5 L722,273.5 " fill="none" filter="url(#f1u5byb8pyq82y)" style="stroke:#A80036;stroke-width:1.5;"/><text fill="#000000" font-family="sans-serif" font-size="14" lengthAdjust="spacing" textLength="137" x="640.5" y="291.9951">remote_B_workers..</text><path d="M509,38.2851 C509,53.7985 509,77.312 509,94.7859 " fill="none" id="Local System-to-Boss Actor" style="stroke:#A80036;stroke-width:1.0;"/><polygon fill="#A80036" points="509,99.9995,513,90.9995,509,94.9995,505,90.9995,509,99.9995" style="stroke:#A80036;stroke-width:1.0;"/><path d="M175.3081,118 C259.9134,118 385.486,118 455.9959,118 " fill="none" id="Remote System A-Boss Actor" style="stroke:#A80036;stroke-width:2.0;"/><polygon fill="#A80036" points="461.3928,118,452.3928,114,456.3928,118,452.3928,122,461.3928,118" style="stroke:#A80036;stroke-width:2.0;"/><polygon fill="#A80036" points="170.1725,118,179.1725,122,175.1725,118,179.1725,114,170.1725,118" style="stroke:#A80036;stroke-width:2.0;"/><text fill="#000000" font-family="sans-serif" font-size="13" lengthAdjust="spacing" textLength="255" x="188.25" y="111.0669">get system info &amp; spawn remote worker</text><path d="M561.6701,118 C632.2509,118 758.4609,118 843.4511,118 " fill="none" id="Boss Actor-Remote System B" style="stroke:#A80036;stroke-width:2.0;"/><polygon fill="#A80036" points="848.4804,118,839.4804,114,843.4804,118,839.4804,122,848.4804,118" style="stroke:#A80036;stroke-width:2.0;"/><polygon fill="#A80036" points="556.5885,118,565.5885,122,561.5885,118,565.5885,114,556.5885,118" style="stroke:#A80036;stroke-width:2.0;"/><text fill="#000000" font-family="sans-serif" font-size="13" lengthAdjust="spacing" textLength="255" x="575" y="111.0669">get system info &amp; spawn remote worker</text><path d="M487.5992,136.1522 C478.7845,144.6817 469.2043,155.4983 463,167 C456.1302,179.7355 451.4825,194.7099 448.3482,208.6358 " fill="none" id="Boss Actor-to-local_workers.." style="stroke:#A80036;stroke-width:1.0;"/><polygon fill="#A80036" points="447.2606,213.7129,453.0572,205.7505,448.308,208.8238,445.2347,204.0747,447.2606,213.7129" style="stroke:#A80036;stroke-width:1.0;"/><text fill="#000000" font-family="sans-serif" font-size="13" lengthAdjust="spacing" textLength="72" x="464" y="180.0669">assign task</text><path d="M524.5649,136.2564 C530.989,144.9673 537.6961,155.8984 541,167 C563.1857,241.5465 555.1444,265.5192 541,342 C539.4801,350.2181 537.0423,358.7162 534.238,366.845 " fill="none" id="Boss Actor-to-printer" style="stroke:#A80036;stroke-width:1.0;"/><polygon fill="#A80036" points="532.4495,371.8528,539.2435,364.7225,534.1312,367.1441,531.7096,362.0318,532.4495,371.8528" style="stroke:#A80036;stroke-width:1.0;"/><text fill="#000000" font-family="sans-serif" font-size="13" lengthAdjust="spacing" textLength="40" x="555" y="259.0669">spwan</text><path d="M461.2467,129.4408 C433.9957,137.3378 399.9957,149.5878 373,167 C354.9521,178.6409 337.8651,194.789 323.8096,210.0471 " fill="none" id="Boss Actor-to-remote_A_workers.." style="stroke:#A80036;stroke-width:1.0;stroke-dasharray:7.0,7.0;"/><polygon fill="#A80036" points="320.3028,213.9038,329.317,209.936,323.6666,210.2045,323.3981,204.554,320.3028,213.9038" style="stroke:#A80036;stroke-width:1.0;"/><text fill="#000000" font-family="sans-serif" font-size="13" lengthAdjust="spacing" textLength="72" x="374" y="180.0669">assign task</text><path d="M539.7543,136.0467 C554.7833,145.0649 573.0282,156.3107 589,167 C609.5185,180.7323 631.477,196.434 650.9272,210.7105 " fill="none" id="Boss Actor-to-remote_B_workers.." style="stroke:#A80036;stroke-width:1.0;stroke-dasharray:7.0,7.0;"/><polygon fill="#A80036" points="655.2955,213.9237,650.4158,205.3687,651.2678,210.961,645.6755,211.813,655.2955,213.9237" style="stroke:#A80036;stroke-width:1.0;"/><text fill="#000000" font-family="sans-serif" font-size="13" lengthAdjust="spacing" textLength="72" x="613" y="180.0669">assign task</text><path d="M114.5585,136.1261 C142.3315,155.0813 186.9487,185.5325 223.9743,210.8025 " fill="none" id="Remote System A-to-remote_A_workers.." style="stroke:#A80036;stroke-width:1.0;"/><polygon fill="#A80036" points="228.4504,213.8574,223.2717,205.48,224.3206,211.0387,218.7619,212.0876,228.4504,213.8574" style="stroke:#A80036;stroke-width:1.0;"/><path d="M901.9774,135.845 C871.0195,154.8799 820.84,185.7335 779.4098,211.2075 " fill="none" id="Remote System B-to-remote_B_workers.." style="stroke:#A80036;stroke-width:1.0;"/><polygon fill="#A80036" points="774.9172,213.9699,784.679,212.6631,779.1764,211.3509,780.4886,205.8484,774.9172,213.9699" style="stroke:#A80036;stroke-width:1.0;"/><path d="M448.9494,295.2013 C452.3712,310.3192 457.2508,327.3458 464,342 C470.3174,355.7166 479.3951,369.5441 488.0866,381.2755 " fill="none" id="local_workers..-to-printer" style="stroke:#A80036;stroke-width:1.0;stroke-dasharray:7.0,7.0;"/><polygon fill="#A80036" points="491.2654,385.4987,489.0489,375.9025,488.2585,381.5038,482.6572,380.7134,491.2654,385.4987" style="stroke:#A80036;stroke-width:1.0;"/><text fill="#000000" font-family="sans-serif" font-size="13" lengthAdjust="spacing" textLength="71" x="465" y="338.0669">send result</text><path d="M323.7649,295.1661 C338.9026,310.9601 357.3378,328.4665 376,342 C411.4123,367.6804 457.5098,389.1791 486.4344,401.4487 " fill="none" id="remote_A_workers..-to-printer" style="stroke:#A80036;stroke-width:1.0;stroke-dasharray:7.0,7.0;"/><polygon fill="#A80036" points="491.2766,403.4844,484.5305,396.3088,486.6674,401.5465,481.4298,403.6834,491.2766,403.4844" style="stroke:#A80036;stroke-width:1.0;"/><text fill="#000000" font-family="sans-serif" font-size="13" lengthAdjust="spacing" textLength="71" x="377" y="338.0669">send result</text><path d="M658.7827,295.1889 C621.0917,325.7283 570.9622,366.346 540.6626,390.8965 " fill="none" id="remote_B_workers..-to-printer" style="stroke:#A80036;stroke-width:1.0;stroke-dasharray:7.0,7.0;"/><polygon fill="#A80036" points="536.7043,394.1037,546.2152,391.5457,540.5891,390.956,541.1789,385.33,536.7043,394.1037" style="stroke:#A80036;stroke-width:1.0;"/><text fill="#000000" font-family="sans-serif" font-size="13" lengthAdjust="spacing" textLength="71" x="618" y="338.0669">send result</text></g></svg>