<?xml version="1.0" encoding="UTF-8" standalone="no"?><svg xmlns="http://www.w3.org/2000/svg" xmlns:xlink="http://www.w3.org/1999/xlink" contentScriptType="application/ecmascript" contentStyleType="text/css" height="617px" preserveAspectRatio="none" style="width:785px;height:617px;" version="1.1" viewBox="0 0 785 617" width="785px" zoomAndPan="magnify"><defs><filter height="300%" id="fi0t4hubaz27n" width="300%" x="-1" y="-1"><feGaussianBlur result="blurOut" stdDeviation="2.0"/><feColorMatrix in="blurOut" result="blurOut2" type="matrix" values="0 0 0 0 0 0 0 0 0 0 0 0 0 0 0 0 0 0 .4 0"/><feOffset dx="4.0" dy="4.0" in="blurOut2" result="blurOut3"/><feBlend in="SourceGraphic" in2="blurOut3" mode="normal"/></filter></defs><g><ellipse cx="577.707" cy="120.1928" fill="#FEFECE" filter="url(#fi0t4hubaz27n)" rx="68.964" ry="16.1928" style="stroke:#A80036;stroke-width:1.5;"/><text fill="#000000" font-family="sans-serif" font-size="14" lengthAdjust="spacing" textLength="90" x="529.707" y="123.9404">Local System</text><rect fill="#FEFECE" filter="url(#fi0t4hubaz27n)" height="36.2969" style="stroke:#000000;stroke-width:1.5;" width="95" x="530.243" y="237.5"/><text fill="#000000" font-family="sans-serif" font-size="14" lengthAdjust="spacing" textLength="75" x="540.243" y="260.4951">Boss Actor</text><ellipse cx="537.743" cy="382.5" fill="#FEFECE" filter="url(#fi0t4hubaz27n)" rx="8" ry="8" style="stroke:#A80036;stroke-width:1.5;"/><path d="M537.743,390.5 L537.743,417.5 M524.743,398.5 L550.743,398.5 M537.743,417.5 L524.743,432.5 M537.743,417.5 L550.743,432.5 " fill="none" filter="url(#fi0t4hubaz27n)" style="stroke:#A80036;stroke-width:1.5;"/><text fill="#000000" font-family="sans-serif" font-size="14" lengthAdjust="spacing" textLength="63" x="506.243" y="450.9951">worker_1</text><ellipse cx="635.743" cy="382.5" fill="#FEFECE" filter="url(#fi0t4hubaz27n)" rx="8" ry="8" style="stroke:#A80036;stroke-width:1.5;"/><path d="M635.743,390.5 L635.743,417.5 M622.743,398.5 L648.743,398.5 M635.743,417.5 L622.743,432.5 M635.743,417.5 L648.743,432.5 " fill="none" filter="url(#fi0t4hubaz27n)" style="stroke:#A80036;stroke-width:1.5;"/><text fill="#000000" font-family="sans-serif" font-size="14" lengthAdjust="spacing" textLength="63" x="604.243" y="450.9951">worker_2</text><ellipse cx="748.743" cy="382.5" fill="#FEFECE" filter="url(#fi0t4hubaz27n)" rx="8" ry="8" style="stroke:#A80036;stroke-width:1.5;"/><path d="M748.743,390.5 L748.743,417.5 M735.743,398.5 L761.743,398.5 M748.743,417.5 L735.743,432.5 M748.743,417.5 L761.743,432.5 " fill="none" filter="url(#fi0t4hubaz27n)" style="stroke:#A80036;stroke-width:1.5;"/><text fill="#000000" font-family="sans-serif" font-size="14" lengthAdjust="spacing" textLength="59" x="719.243" y="450.9951">worker...</text><ellipse cx="522.743" cy="540.5" fill="#FEFECE" filter="url(#fi0t4hubaz27n)" rx="8" ry="8" style="stroke:#A80036;stroke-width:1.5;"/><path d="M522.743,548.5 L522.743,575.5 M509.743,556.5 L535.743,556.5 M522.743,575.5 L509.743,590.5 M522.743,575.5 L535.743,590.5 " fill="none" filter="url(#fi0t4hubaz27n)" style="stroke:#A80036;stroke-width:1.5;"/><text fill="#000000" font-family="sans-serif" font-size="14" lengthAdjust="spacing" textLength="45" x="500.243" y="608.9951">printer</text><ellipse cx="162.8042" cy="23.7122" fill="#FEFECE" filter="url(#fi0t4hubaz27n)" rx="76.5612" ry="17.7122" style="stroke:#A80036;stroke-width:1.5;"/><text fill="#000000" font-family="sans-serif" font-size="14" lengthAdjust="spacing" textLength="110" x="104.8042" y="27.4598">Remote System</text><rect fill="#FEFECE" filter="url(#fi0t4hubaz27n)" height="36.2969" style="stroke:#000000;stroke-width:1.5;" width="154" x="85.743" y="102"/><text fill="#000000" font-family="sans-serif" font-size="14" lengthAdjust="spacing" textLength="134" x="95.743" y="124.9951">Remote Boss Actor</text><ellipse cx="114.743" cy="224.5" fill="#FEFECE" filter="url(#fi0t4hubaz27n)" rx="8" ry="8" style="stroke:#A80036;stroke-width:1.5;"/><path d="M114.743,232.5 L114.743,259.5 M101.743,240.5 L127.743,240.5 M114.743,259.5 L101.743,274.5 M114.743,259.5 L127.743,274.5 " fill="none" filter="url(#fi0t4hubaz27n)" style="stroke:#A80036;stroke-width:1.5;"/><text fill="#000000" font-family="sans-serif" font-size="14" lengthAdjust="spacing" textLength="62" x="83.743" y="292.9951">worker_a</text><ellipse cx="219.743" cy="224.5" fill="#FEFECE" filter="url(#fi0t4hubaz27n)" rx="8" ry="8" style="stroke:#A80036;stroke-width:1.5;"/><path d="M219.743,232.5 L219.743,259.5 M206.743,240.5 L232.743,240.5 M219.743,259.5 L206.743,274.5 M219.743,259.5 L232.743,274.5 " fill="none" filter="url(#fi0t4hubaz27n)" style="stroke:#A80036;stroke-width:1.5;"/><text fill="#000000" font-family="sans-serif" font-size="14" lengthAdjust="spacing" textLength="63" x="188.243" y="292.9951">worker_b</text><ellipse cx="333.743" cy="224.5" fill="#FEFECE" filter="url(#fi0t4hubaz27n)" rx="8" ry="8" style="stroke:#A80036;stroke-width:1.5;"/><path d="M333.743,232.5 L333.743,259.5 M320.743,240.5 L346.743,240.5 M333.743,259.5 L320.743,274.5 M333.743,259.5 L346.743,274.5 " fill="none" filter="url(#fi0t4hubaz27n)" style="stroke:#A80036;stroke-width:1.5;"/><text fill="#000000" font-family="sans-serif" font-size="14" lengthAdjust="spacing" textLength="55" x="306.243" y="292.9951">worker..</text><ellipse cx="219.743" cy="382.5" fill="#FEFECE" filter="url(#fi0t4hubaz27n)" rx="8" ry="8" style="stroke:#A80036;stroke-width:1.5;"/><path d="M219.743,390.5 L219.743,417.5 M206.743,398.5 L232.743,398.5 M219.743,417.5 L206.743,432.5 M219.743,417.5 L232.743,432.5 " fill="none" filter="url(#fi0t4hubaz27n)" style="stroke:#A80036;stroke-width:1.5;"/><text fill="#000000" font-family="sans-serif" font-size="14" lengthAdjust="spacing" textLength="68" x="185.743" y="450.9951">post_man</text><path d="M577.743,136.0757 C577.743,159.8668 577.743,204.5886 577.743,232.0408 " fill="none" id="Local System-to-Boss Actor" style="stroke:#A80036;stroke-width:1.0;"/><polygon fill="#A80036" points="577.743,237.2896,581.743,228.2896,577.743,232.2896,573.743,228.2896,577.743,237.2896" style="stroke:#A80036;stroke-width:1.0;"/><path d="M555.8305,273.6428 C541.995,286.5978 525.3461,305.3354 517.743,326 C512.855,339.2853 513.9546,354.1601 517.4078,367.8235 " fill="none" id="Boss Actor-to-worker_1" style="stroke:#A80036;stroke-width:1.0;"/><polygon fill="#A80036" points="518.7798,372.7974,520.2423,363.0577,517.4501,367.9775,512.5304,365.1853,518.7798,372.7974" style="stroke:#A80036;stroke-width:1.0;"/><text fill="#000000" font-family="sans-serif" font-size="13" lengthAdjust="spacing" textLength="72" x="518.743" y="339.0669">assign task</text><path d="M584.3964,273.6246 C592.7849,296.4762 607.5031,336.5706 619.0372,367.991 " fill="none" id="Boss Actor-to-worker_2" style="stroke:#A80036;stroke-width:1.0;"/><polygon fill="#A80036" points="620.8596,372.9554,621.5129,363.1282,619.1365,368.2617,614.003,365.8853,620.8596,372.9554" style="stroke:#A80036;stroke-width:1.0;"/><text fill="#000000" font-family="sans-serif" font-size="13" lengthAdjust="spacing" textLength="72" x="609.743" y="339.0669">assign task</text><path d="M615.1412,273.5526 C638.6142,286.091 668.5336,304.3943 690.743,326 C703.4106,338.3232 714.8033,353.865 724.0694,368.419 " fill="none" id="Boss Actor-to-worker..." style="stroke:#A80036;stroke-width:1.0;"/><polygon fill="#A80036" points="726.8759,372.8994,725.488,363.1488,724.2216,368.6621,718.7083,367.3957,726.8759,372.8994" style="stroke:#A80036;stroke-width:1.0;"/><text fill="#000000" font-family="sans-serif" font-size="13" lengthAdjust="spacing" textLength="72" x="705.743" y="339.0669">assign task</text><path d="M544.9977,273.6616 C513.1475,293.4069 466.7301,328.2236 446.743,373 C420.4753,431.8468 465.4135,502.7804 496.6318,541.9251 " fill="none" id="Boss Actor-to-printer" style="stroke:#A80036;stroke-width:1.0;"/><polygon fill="#A80036" points="499.9856,546.0754,497.4402,536.5612,496.843,542.1864,491.2178,541.5893,499.9856,546.0754" style="stroke:#A80036;stroke-width:1.0;"/><text fill="#000000" font-family="sans-serif" font-size="13" lengthAdjust="spacing" textLength="40" x="447.743" y="418.0669">spawn</text><path d="M525.5194,454.1745 C523.1222,463.86 520.9714,474.2237 519.743,484 C518.0535,497.4471 517.9048,512.1418 518.4286,525.5836 " fill="none" id="worker_1-to-printer" style="stroke:#A80036;stroke-width:1.0;stroke-dasharray:7.0,7.0;"/><polygon fill="#A80036" points="518.6707,530.8645,522.2543,521.6907,518.4417,525.8697,514.2627,522.0571,518.6707,530.8645" style="stroke:#A80036;stroke-width:1.0;"/><text fill="#000000" font-family="sans-serif" font-size="13" lengthAdjust="spacing" textLength="71" x="520.743" y="497.0669">send result</text><path d="M621.5519,454.0219 C615.1807,469.4471 606.8107,486.731 596.743,501 C583.5587,519.6863 564.8936,537.4264 549.6079,550.4367 " fill="none" id="worker_2-to-printer" style="stroke:#A80036;stroke-width:1.0;stroke-dasharray:7.0,7.0;"/><polygon fill="#A80036" points="545.3936,553.9778,554.8573,551.2505,549.2217,550.7613,549.7109,545.1256,545.3936,553.9778" style="stroke:#A80036;stroke-width:1.0;"/><text fill="#000000" font-family="sans-serif" font-size="13" lengthAdjust="spacing" textLength="71" x="607.743" y="497.0669">send result</text><path d="M726.9908,454.3201 C716.7843,470.5091 703.4014,488.2626 687.743,501 C645.9386,535.0061 585.2875,555.2459 550.3506,564.7961 " fill="none" id="worker...-to-printer" style="stroke:#A80036;stroke-width:1.0;stroke-dasharray:7.0,7.0;"/><polygon fill="#A80036" points="545.3878,566.128,555.117,567.6585,550.2169,564.832,553.0434,559.9319,545.3878,566.128" style="stroke:#A80036;stroke-width:1.0;"/><text fill="#000000" font-family="sans-serif" font-size="13" lengthAdjust="spacing" textLength="71" x="705.743" y="497.0669">send result</text><path d="M162.743,41.1996 C162.743,56.7817 162.743,79.5852 162.743,96.6571 " fill="none" id="Remote System-to-Remote Boss Actor" style="stroke:#A80036;stroke-width:1.0;"/><polygon fill="#A80036" points="162.743,101.7569,166.743,92.7569,162.743,96.7569,158.743,92.7569,162.743,101.7569" style="stroke:#A80036;stroke-width:1.0;"/><path d="M129.8104,138.126 C119.1499,145.8236 108.5795,155.8565 102.743,168 C96.5908,180.8006 96.4614,195.793 98.802,209.7154 " fill="none" id="Remote Boss Actor-to-worker_a" style="stroke:#A80036;stroke-width:1.0;"/><polygon fill="#A80036" points="99.7695,214.7902,102.0129,205.2002,98.8329,209.8787,94.1545,206.6987,99.7695,214.7902" style="stroke:#A80036;stroke-width:1.0;"/><text fill="#000000" font-family="sans-serif" font-size="13" lengthAdjust="spacing" textLength="72" x="103.743" y="181.0669">assign task</text><path d="M170.4303,138.2741 C178.1222,156.5593 190.2615,185.4166 200.5706,209.9234 " fill="none" id="Remote Boss Actor-to-worker_b" style="stroke:#A80036;stroke-width:1.0;"/><polygon fill="#A80036" points="202.6062,214.7623,202.8033,204.9154,200.6674,210.1535,195.4293,208.0175,202.6062,214.7623" style="stroke:#A80036;stroke-width:1.0;"/><text fill="#000000" font-family="sans-serif" font-size="13" lengthAdjust="spacing" textLength="72" x="190.743" y="181.0669">assign task</text><path d="M219.2341,138.103 C237.1929,145.5598 256.3654,155.4479 271.743,168 C286.1131,179.7297 298.6889,195.5828 308.6904,210.5731 " fill="none" id="Remote Boss Actor-to-worker.." style="stroke:#A80036;stroke-width:1.0;"/><polygon fill="#A80036" points="311.4424,214.774,309.8567,205.0536,308.7026,210.5915,303.1647,209.4373,311.4424,214.774" style="stroke:#A80036;stroke-width:1.0;"/><text fill="#000000" font-family="sans-serif" font-size="13" lengthAdjust="spacing" textLength="72" x="289.743" y="181.0669">assign task</text><path d="M115.3059,138.1522 C82.9936,153.3292 42.7577,178.4347 23.743,215 C7.1339,246.9395 6,264.6761 23.743,296 C57.2308,355.1199 133.6307,387.7251 180.5406,402.833 " fill="none" id="Remote Boss Actor-to-post_man" style="stroke:#A80036;stroke-width:1.0;"/><polygon fill="#A80036" points="185.5474,404.4152,178.1711,397.889,180.7798,402.9085,175.7604,405.5172,185.5474,404.4152" style="stroke:#A80036;stroke-width:1.0;"/><text fill="#000000" font-family="sans-serif" font-size="13" lengthAdjust="spacing" textLength="40" x="24.743" y="260.0669">spawn</text><path d="M119.0347,296.3553 C122.029,311.824 127.1126,329.0505 135.743,343 C147.1938,361.508 165.1672,377.5443 181.5549,389.6259 " fill="none" id="worker_a-to-post_man" style="stroke:#A80036;stroke-width:1.0;stroke-dasharray:7.0,7.0;"/><polygon fill="#A80036" points="185.6822,392.6114,180.7345,384.0955,181.631,389.6809,176.0457,390.5774,185.6822,392.6114" style="stroke:#A80036;stroke-width:1.0;"/><text fill="#000000" font-family="sans-serif" font-size="13" lengthAdjust="spacing" textLength="71" x="136.743" y="339.0669">send result</text><path d="M217.7189,296.1261 C217.3133,305.9064 216.9488,316.3242 216.743,326 C216.4549,339.5498 216.7314,354.2756 217.2142,367.7144 " fill="none" id="worker_b-to-post_man" style="stroke:#A80036;stroke-width:1.0;stroke-dasharray:7.0,7.0;"/><polygon fill="#A80036" points="217.4165,372.9924,221.0687,363.8458,217.2249,367.9961,213.0746,364.1523,217.4165,372.9924" style="stroke:#A80036;stroke-width:1.0;"/><text fill="#000000" font-family="sans-serif" font-size="13" lengthAdjust="spacing" textLength="71" x="217.743" y="339.0669">send result</text><path d="M319.0346,296.0082 C312.48,311.4316 303.9219,328.7179 293.743,343 C283.5701,357.2738 270.23,371.029 257.6815,382.5405 " fill="none" id="worker..-to-post_man" style="stroke:#A80036;stroke-width:1.0;stroke-dasharray:7.0,7.0;"/><polygon fill="#A80036" points="253.817,386.0391,263.1736,382.9642,257.5237,382.6834,257.8045,377.0335,253.817,386.0391" style="stroke:#A80036;stroke-width:1.0;"/><text fill="#000000" font-family="sans-serif" font-size="13" lengthAdjust="spacing" textLength="71" x="304.743" y="339.0669">send result</text><path d="M253.912,431.3175 C314.5788,462.9523 439.9223,528.3129 495.353,557.2174 " fill="none" id="post_man-to-printer" style="stroke:#A80036;stroke-width:1.0;stroke-dasharray:7.0,7.0;"/><polygon fill="#A80036" points="499.8592,559.5672,493.7285,551.8591,495.4258,557.2553,490.0295,558.9526,499.8592,559.5672" style="stroke:#A80036;stroke-width:1.0;"/></g></svg>